<?xml version="1.0" encoding="utf-8"?>
<!-- Generator: Adobe Illustrator 16.0.0, SVG Export Plug-In . SVG Version: 6.00 Build 0)  -->
<!DOCTYPE svg PUBLIC "-//W3C//DTD SVG 1.1//EN" "http://www.w3.org/Graphics/SVG/1.1/DTD/svg11.dtd">
<svg version="1.1" id="Layer_1" xmlns="http://www.w3.org/2000/svg" xmlns:xlink="http://www.w3.org/1999/xlink" x="0px" y="0px"
	 width="30px" height="30px" viewBox="0 0 30 30" enable-background="new 0 0 30 30" xml:space="preserve">
<g>
	<path fill="#4E07EA" d="M29.758,2.428c-0.065-1.178-1.001-2.114-2.179-2.177c-2.376-0.13-7.027-0.004-11.473,2.296
		C13.84,3.719,11.443,5.706,9.53,8C9.506,8.027,9.484,8.056,9.46,8.084L5.119,8.42C4.404,8.475,3.768,8.85,3.372,9.447L0.41,13.928
		c-0.3,0.454-0.347,1.021-0.127,1.517c0.22,0.499,0.672,0.845,1.208,0.928l3.658,0.564c-0.013,0.072-0.025,0.146-0.038,0.215
		c-0.122,0.728,0.12,1.479,0.646,2.003l5.095,5.096c0.437,0.436,1.026,0.676,1.629,0.676c0.125,0,0.25-0.009,0.374-0.03
		c0.071-0.012,0.143-0.024,0.213-0.036l0.566,3.657c0.083,0.537,0.43,0.988,0.927,1.209c0.207,0.092,0.425,0.135,0.643,0.135
		c0.307,0,0.61-0.089,0.875-0.265l4.479-2.961c0.598-0.394,0.972-1.03,1.027-1.746l0.335-4.342c0.029-0.024,0.058-0.047,0.087-0.07
		c2.293-1.911,4.28-4.309,5.453-6.575C29.762,9.454,29.888,4.804,29.758,2.428L29.758,2.428z M19.601,25.186l-4.285,2.832
		l-0.552-3.563c1.811-0.532,3.603-1.385,5.309-2.528l-0.216,2.83C19.841,24.931,19.749,25.087,19.601,25.186L19.601,25.186z
		 M12.08,23.023l-5.095-5.098c-0.129-0.13-0.19-0.313-0.161-0.486c0.152-0.907,0.386-1.769,0.678-2.582l7.645,7.646
		c-0.976,0.35-1.85,0.558-2.579,0.68C12.393,23.212,12.21,23.151,12.08,23.023L12.08,23.023z M5.252,10.153l2.828-0.22
		c-1.143,1.707-1.996,3.5-2.528,5.309L1.988,14.69l2.833-4.285C4.918,10.259,5.076,10.165,5.252,10.153z M20.895,19.143
		c-1.402,1.171-2.765,2.018-4.021,2.631l-8.64-8.641c0.802-1.64,1.782-3.003,2.63-4.021c1.77-2.122,3.972-3.953,6.041-5.023
		c4.08-2.11,8.381-2.224,10.579-2.104C27.775,2,28.008,2.231,28.022,2.522c0.12,2.2,0.006,6.5-2.104,10.58
		C24.848,15.172,23.019,17.373,20.895,19.143L20.895,19.143z"/>
	<path fill="#4E07EA" d="M20.453,13.894c1.112,0,2.224-0.423,3.07-1.27c0.82-0.819,1.272-1.911,1.272-3.069
		c0-1.161-0.452-2.251-1.272-3.071c-1.693-1.693-4.448-1.693-6.14,0c-0.822,0.82-1.273,1.91-1.273,3.071
		c0,1.158,0.451,2.25,1.273,3.069C18.229,13.471,19.341,13.894,20.453,13.894L20.453,13.894z M18.611,7.711
		c0.509-0.508,1.174-0.762,1.842-0.762c0.667,0,1.336,0.254,1.843,0.762c0.492,0.492,0.764,1.146,0.764,1.844
		c0,0.695-0.271,1.349-0.764,1.842c-1.016,1.015-2.669,1.015-3.685,0c-0.492-0.493-0.764-1.147-0.764-1.842
		C17.848,8.857,18.119,8.203,18.611,7.711z"/>
	<path fill="#4E07EA" d="M1.032,24.646c0.223,0,0.445-0.085,0.614-0.254l2.835-2.836c0.34-0.34,0.34-0.889,0-1.229
		c-0.338-0.338-0.888-0.338-1.228,0l-2.836,2.836c-0.338,0.34-0.338,0.889,0,1.229C0.587,24.562,0.81,24.646,1.032,24.646z"/>
	<path fill="#4E07EA" d="M7.08,22.926c-0.339-0.339-0.889-0.339-1.228,0L0.4,28.379c-0.339,0.339-0.339,0.889,0,1.228
		c0.17,0.168,0.392,0.254,0.615,0.254c0.222,0,0.444-0.086,0.613-0.254l5.452-5.452C7.419,23.814,7.419,23.266,7.08,22.926
		L7.08,22.926z"/>
	<path fill="#4E07EA" d="M8.451,25.525l-2.835,2.836c-0.339,0.339-0.339,0.889,0,1.229c0.169,0.169,0.392,0.253,0.614,0.253
		c0.222,0,0.444-0.084,0.614-0.253l2.836-2.836c0.338-0.34,0.338-0.889,0-1.229C9.34,25.186,8.79,25.186,8.451,25.525z"/>
</g>
<g>
</g>
<g>
</g>
<g>
</g>
<g>
</g>
<g>
</g>
<g>
</g>
</svg>
