<?xml version="1.0" encoding="utf-8"?>
<!-- Generator: Adobe Illustrator 16.0.0, SVG Export Plug-In . SVG Version: 6.00 Build 0)  -->
<!DOCTYPE svg PUBLIC "-//W3C//DTD SVG 1.1//EN" "http://www.w3.org/Graphics/SVG/1.1/DTD/svg11.dtd">
<svg version="1.1" id="Layer_1" xmlns="http://www.w3.org/2000/svg" xmlns:xlink="http://www.w3.org/1999/xlink" x="0px" y="0px"
	 width="141px" height="40px" viewBox="0 0 141 40" enable-background="new 0 0 141 40" xml:space="preserve">
<g>
	<g>
		<g>
			<path fill="#4E07EA" d="M13.713,7.417c-7.488,0-13.634,6.146-13.634,13.634c0,7.488,6.145,13.634,13.634,13.634
				c7.489,0,13.635-6.146,13.635-13.634C27.348,13.562,21.202,7.417,13.713,7.417z"/>
		</g>
	</g>
</g>
<g>
	<path fill="#FFFFFF" d="M21.508,14.288c-0.034-0.631-0.537-1.134-1.168-1.168c-1.274-0.069-3.768-0.002-6.152,1.231
		c-1.215,0.629-2.501,1.695-3.527,2.925c-0.013,0.015-0.024,0.031-0.037,0.046l-2.329,0.18c-0.383,0.029-0.724,0.23-0.937,0.551
		L5.77,20.455c-0.161,0.243-0.186,0.547-0.068,0.813c0.118,0.268,0.36,0.452,0.648,0.497l1.961,0.305
		c-0.006,0.038-0.014,0.076-0.02,0.113c-0.065,0.392,0.064,0.793,0.347,1.074l2.732,2.734c0.234,0.232,0.55,0.362,0.875,0.362
		c0.066,0,0.134-0.006,0.2-0.018c0.038-0.006,0.076-0.013,0.114-0.021l0.304,1.963c0.044,0.288,0.23,0.529,0.497,0.647
		c0.111,0.049,0.228,0.074,0.345,0.074c0.164,0,0.327-0.048,0.469-0.143l2.402-1.589c0.321-0.212,0.522-0.554,0.551-0.937
		l0.18-2.328c0.015-0.013,0.031-0.025,0.046-0.037c1.23-1.025,2.296-2.312,2.924-3.527C21.511,18.056,21.578,15.562,21.508,14.288
		L21.508,14.288z M16.062,26.492l-2.298,1.52l-0.296-1.911c0.972-0.285,1.933-0.742,2.848-1.355l-0.117,1.516
		C16.19,26.355,16.141,26.439,16.062,26.492L16.062,26.492z M12.028,25.332L9.296,22.6c-0.07-0.068-0.102-0.167-0.086-0.262
		c0.082-0.486,0.208-0.948,0.364-1.384l4.099,4.1c-0.523,0.187-0.991,0.3-1.383,0.365C12.195,25.435,12.098,25.402,12.028,25.332
		L12.028,25.332z M8.366,18.43l1.517-0.117c-0.612,0.916-1.07,1.876-1.356,2.848l-1.912-0.295l1.52-2.299
		C8.188,18.487,8.271,18.437,8.366,18.43z M16.755,23.252c-0.752,0.627-1.482,1.082-2.156,1.41l-4.634-4.634
		c0.431-0.879,0.956-1.611,1.41-2.156c0.95-1.139,2.13-2.121,3.24-2.694c2.188-1.131,4.494-1.193,5.674-1.128
		c0.156,0.009,0.28,0.132,0.289,0.289c0.064,1.18,0.003,3.485-1.129,5.673C18.875,21.122,17.894,22.304,16.755,23.252L16.755,23.252
		z"/>
	<path fill="#FFFFFF" d="M16.519,20.437c0.596,0,1.193-0.227,1.646-0.681c0.439-0.44,0.682-1.024,0.682-1.646
		s-0.242-1.207-0.682-1.647c-0.909-0.908-2.386-0.908-3.293,0c-0.44,0.44-0.683,1.025-0.683,1.647s0.243,1.207,0.683,1.646
		C15.326,20.21,15.922,20.437,16.519,20.437L16.519,20.437z M15.53,17.121c0.272-0.272,0.63-0.409,0.989-0.409
		c0.357,0,0.715,0.137,0.988,0.409c0.264,0.265,0.41,0.615,0.41,0.989c0,0.373-0.146,0.724-0.41,0.988
		c-0.545,0.545-1.432,0.545-1.977,0c-0.264-0.264-0.409-0.615-0.409-0.988C15.121,17.736,15.266,17.385,15.53,17.121z"/>
	<path fill="#FFFFFF" d="M6.103,26.203c0.119,0,0.238-0.046,0.329-0.137l1.521-1.521c0.182-0.183,0.182-0.477,0-0.658
		c-0.182-0.183-0.477-0.183-0.659,0l-1.521,1.521c-0.183,0.183-0.183,0.477,0,0.658C5.865,26.157,5.984,26.203,6.103,26.203z"/>
	<path fill="#FFFFFF" d="M9.347,25.281c-0.182-0.182-0.477-0.182-0.659,0l-2.924,2.924c-0.182,0.182-0.182,0.477,0,0.659
		C5.855,28.955,5.974,29,6.094,29c0.118,0,0.237-0.045,0.328-0.136l2.924-2.923C9.529,25.759,9.529,25.464,9.347,25.281
		L9.347,25.281z"/>
	<path fill="#FFFFFF" d="M10.082,26.675l-1.521,1.521c-0.182,0.183-0.182,0.477,0,0.658c0.091,0.091,0.21,0.138,0.33,0.138
		c0.119,0,0.238-0.047,0.329-0.138l1.521-1.521c0.182-0.182,0.182-0.478,0-0.658C10.558,26.492,10.264,26.492,10.082,26.675z"/>
</g>
<g>
	<path fill="#231F20" d="M43.587,16.07h-3.479v12.501c0,0.235-0.193,0.429-0.43,0.429h-2.813c-0.236,0-0.43-0.193-0.43-0.429V16.07
		h-3.501c-0.236,0-0.43-0.171-0.43-0.408V13.45c0-0.236,0.193-0.408,0.43-0.408h10.653c0.237,0,0.451,0.171,0.451,0.408v2.212
		C44.039,15.899,43.824,16.07,43.587,16.07z"/>
	<path fill="#231F20" d="M48.678,23.716h-4.167c-0.236,0-0.43-0.15-0.43-0.386v-1.718c0-0.236,0.193-0.409,0.43-0.409h4.167
		c0.236,0,0.43,0.173,0.43,0.409v1.718C49.107,23.565,48.914,23.716,48.678,23.716z"/>
	<path fill="#231F20" d="M55.701,29.193c-1.697,0-2.964-0.193-4.06-0.472c-0.214-0.065-0.43-0.194-0.43-0.431v-2.105
		c0-0.299,0.172-0.407,0.387-0.407c0.021,0,0.043,0,0.064,0c0.881,0.087,3.243,0.257,4.081,0.257c1.482,0,1.912-0.471,1.912-1.502
		c0-0.623-0.301-0.968-1.417-1.634l-2.964-1.76c-1.998-1.182-2.535-2.535-2.535-4.103c0-2.362,1.332-4.188,5.499-4.188
		c1.567,0,3.736,0.258,4.552,0.473c0.172,0.042,0.322,0.15,0.322,0.387v2.169c0,0.193-0.085,0.365-0.365,0.365c0,0-0.022,0-0.043,0
		c-0.602-0.043-3.093-0.236-4.553-0.236c-1.224,0-1.676,0.365-1.676,1.138c0,0.602,0.279,0.881,1.439,1.503l2.75,1.482
		c2.234,1.203,2.899,2.619,2.899,4.359C61.564,26.767,60.06,29.193,55.701,29.193z"/>
	<path fill="#231F20" d="M74.085,16.07h-3.479v12.501c0,0.235-0.194,0.429-0.429,0.429h-2.814c-0.236,0-0.429-0.193-0.429-0.429
		V16.07h-3.501c-0.235,0-0.429-0.171-0.429-0.408V13.45c0-0.236,0.194-0.408,0.429-0.408h10.653c0.236,0,0.452,0.171,0.452,0.408
		v2.212C74.537,15.899,74.321,16.07,74.085,16.07z"/>
	<path fill="#231F20" d="M87.166,29h-3.008c-0.216,0-0.388-0.171-0.43-0.386l-0.772-3.522h-4.404l-0.772,3.522
		C77.736,28.829,77.565,29,77.35,29h-3.007c-0.214,0-0.365-0.128-0.365-0.344c0-0.021,0.021-0.064,0.021-0.107l3.2-13.316
		c0.494-2.063,2.084-2.384,3.564-2.384c1.482,0,3.051,0.322,3.544,2.384l3.201,13.316c0,0.043,0.021,0.087,0.021,0.107
		C87.529,28.872,87.379,29,87.166,29z M81.044,16.221c-0.042-0.215-0.086-0.322-0.28-0.322c-0.192,0-0.257,0.107-0.3,0.322
		l-1.309,5.928h3.198L81.044,16.221z"/>
	<path fill="#231F20" d="M101.447,29h-3.286c-0.236,0-0.323-0.215-0.43-0.429l-2.878-5.435l-0.236,0.021
		c-0.451,0-1.117-0.042-1.524-0.042v5.456c0,0.235-0.193,0.429-0.43,0.429h-2.792c-0.236,0-0.43-0.193-0.43-0.429V14.159
		c0-0.73,0.301-0.923,0.966-1.031c0.989-0.15,2.815-0.279,4.36-0.279c3.651,0,6.465,1.225,6.465,5.026v0.28
		c0,2.276-1.202,3.671-2.771,4.295l3.243,6.057c0.043,0.085,0.065,0.172,0.065,0.235C101.771,28.894,101.684,29,101.447,29z
		 M97.581,17.875c0-1.311-1.009-1.912-2.813-1.912c-0.301,0-1.416,0.043-1.675,0.064v4.123c0.236,0.022,1.288,0.043,1.524,0.043
		c2.256,0,2.964-0.58,2.964-2.04V17.875z"/>
	<path fill="#231F20" d="M113.476,16.07h-3.48v12.501c0,0.235-0.192,0.429-0.43,0.429h-2.813c-0.236,0-0.43-0.193-0.43-0.429V16.07
		h-3.501c-0.237,0-0.43-0.171-0.43-0.408V13.45c0-0.236,0.192-0.408,0.43-0.408h10.653c0.236,0,0.451,0.171,0.451,0.408v2.212
		C113.926,15.899,113.712,16.07,113.476,16.07z"/>
	<path fill="#231F20" d="M124.793,28.915c-0.752,0.107-1.847,0.278-4.166,0.278c-2.771,0-5.22-0.708-5.22-4.618v-7.13
		c0-3.909,2.47-4.596,5.241-4.596c2.318,0,3.393,0.172,4.145,0.279c0.301,0.042,0.429,0.15,0.429,0.429v1.998
		c0,0.236-0.192,0.43-0.429,0.43h-4.359c-1.01,0-1.375,0.343-1.375,1.46v1.955h5.563c0.235,0,0.429,0.193,0.429,0.43v2.04
		c0,0.237-0.193,0.431-0.429,0.431h-5.563v2.275c0,1.118,0.365,1.46,1.375,1.46h4.359c0.236,0,0.429,0.193,0.429,0.43v1.999
		C125.222,28.742,125.094,28.872,124.793,28.915z"/>
	<path fill="#231F20" d="M139.935,29h-3.286c-0.236,0-0.322-0.215-0.43-0.429l-2.877-5.435l-0.237,0.021
		c-0.451,0-1.117-0.042-1.524-0.042v5.456c0,0.235-0.193,0.429-0.43,0.429h-2.793c-0.235,0-0.428-0.193-0.428-0.429V14.159
		c0-0.73,0.299-0.923,0.965-1.031c0.988-0.15,2.813-0.279,4.36-0.279c3.652,0,6.465,1.225,6.465,5.026v0.28
		c0,2.276-1.202,3.671-2.771,4.295l3.244,6.057c0.042,0.085,0.063,0.172,0.063,0.235C140.257,28.894,140.171,29,139.935,29z
		 M136.068,17.875c0-1.311-1.008-1.912-2.813-1.912c-0.3,0-1.418,0.043-1.675,0.064v4.123c0.235,0.022,1.288,0.043,1.524,0.043
		c2.255,0,2.964-0.58,2.964-2.04V17.875z"/>
</g>
</svg>
