<?xml version="1.0" encoding="utf-8"?>
<!-- Generator: Adobe Illustrator 16.0.0, SVG Export Plug-In . SVG Version: 6.00 Build 0)  -->
<!DOCTYPE svg PUBLIC "-//W3C//DTD SVG 1.1//EN" "http://www.w3.org/Graphics/SVG/1.1/DTD/svg11.dtd">
<svg version="1.1" id="Layer_1" xmlns="http://www.w3.org/2000/svg" xmlns:xlink="http://www.w3.org/1999/xlink" x="0px" y="0px"
	 width="3000px" height="512px" viewBox="0 0 3000 512" enable-background="new 0 0 3000 512" xml:space="preserve">
<g>
	<g>
		<g>
			<path fill="#FFFFFF" d="M260.023,7.501c-137.726,0-250.75,113.023-250.75,250.749C9.273,395.977,122.296,509,260.023,509
				s250.75-113.023,250.75-250.75C510.773,120.524,397.75,7.501,260.023,7.501z"/>
		</g>
	</g>
</g>
<g>
	<path fill="#4E07EA" d="M403.384,133.874c-0.635-11.615-9.87-20.851-21.485-21.484c-23.438-1.281-69.301-0.036-113.154,22.646
		c-22.354,11.564-45.999,31.17-64.867,53.791c-0.232,0.279-0.458,0.559-0.689,0.839l-42.821,3.307
		c-7.049,0.545-13.327,4.239-17.225,10.136l-29.214,44.187c-2.957,4.473-3.426,10.067-1.259,14.97
		c2.169,4.901,6.626,8.319,11.923,9.14l36.078,5.588c-0.128,0.7-0.255,1.402-0.373,2.104c-1.201,7.186,1.179,14.572,6.368,19.761
		l50.253,50.253c4.302,4.303,10.115,6.674,16.072,6.674c1.227,0,2.461-0.101,3.688-0.306c0.701-0.117,1.402-0.245,2.104-0.373
		l5.587,36.078c0.82,5.298,4.237,9.755,9.138,11.924c2.04,0.901,4.198,1.347,6.347,1.347c3.018,0,6.013-0.878,8.625-2.604
		l44.188-29.215c5.896-3.898,9.591-10.179,10.134-17.227l3.31-42.819c0.277-0.23,0.56-0.457,0.84-0.69
		c22.619-18.867,42.226-42.512,53.789-64.869C403.42,203.172,404.662,157.31,403.384,133.874L403.384,133.874z M303.214,358.34
		l-42.268,27.944l-5.445-35.159c17.864-5.252,35.535-13.665,52.371-24.936l-2.155,27.896
		C305.583,355.826,304.671,357.376,303.214,358.34L303.214,358.34z M229.032,336.994l-50.254-50.255
		c-1.282-1.281-1.875-3.084-1.585-4.818c1.495-8.935,3.816-17.438,6.69-25.449l75.401,75.401c-9.623,3.446-18.24,5.502-25.434,6.705
		C232.113,338.866,230.314,338.277,229.032,336.994L229.032,336.994z M161.685,210.056l27.896-2.156
		c-11.271,16.835-19.683,34.507-24.936,52.372l-35.159-5.446l27.946-42.268C158.395,211.101,159.945,210.189,161.685,210.056z
		 M315.972,298.739c-13.84,11.543-27.273,19.896-39.655,25.937l-85.222-85.222c7.915-16.165,17.574-29.625,25.938-39.653
		c17.462-20.933,39.18-38.993,59.584-49.546c40.248-20.818,82.652-21.939,104.348-20.759c2.871,0.158,5.156,2.441,5.313,5.313
		c1.184,21.695,0.06,64.1-20.76,104.349C354.965,259.561,336.906,281.277,315.972,298.739L315.972,298.739z"/>
	<path fill="#4E07EA" d="M311.619,246.965c10.966,0,21.938-4.175,30.286-12.525c8.091-8.089,12.546-18.845,12.546-30.286
		c0-11.439-4.457-22.195-12.546-30.286c-16.701-16.701-43.874-16.699-60.572,0c-8.09,8.091-12.545,18.847-12.545,30.286
		c0,11.441,4.455,22.197,12.545,30.286C289.684,242.791,300.648,246.966,311.619,246.965L311.619,246.965z M293.446,185.982
		c5.009-5.009,11.591-7.516,18.172-7.516c6.582,0,13.162,2.507,18.172,7.516c4.854,4.854,7.526,11.308,7.526,18.172
		c0,6.864-2.672,13.317-7.526,18.172c-10.021,10.021-26.324,10.019-36.344,0c-4.854-4.854-7.527-11.308-7.527-18.172
		C285.919,197.29,288.593,190.836,293.446,185.982z"/>
	<path fill="#4E07EA" d="M120.058,353.016c2.192,0,4.386-0.836,6.058-2.509l27.969-27.97c3.345-3.345,3.345-8.769,0-12.113
		c-3.345-3.347-8.77-3.347-12.115,0l-27.969,27.969c-3.345,3.345-3.345,8.769,0,12.114
		C115.674,352.18,117.866,353.016,120.058,353.016z"/>
	<path fill="#4E07EA" d="M179.716,336.056c-3.345-3.347-8.769-3.347-12.115,0l-53.772,53.771c-3.346,3.347-3.346,8.771,0,12.116
		c1.673,1.671,3.865,2.509,6.058,2.509c2.192,0,4.384-0.838,6.057-2.509l53.771-53.773
		C183.062,344.825,183.062,339.401,179.716,336.056L179.716,336.056z"/>
	<path fill="#4E07EA" d="M193.233,361.688l-27.969,27.968c-3.346,3.349-3.346,8.771,0,12.116c1.672,1.672,3.865,2.509,6.058,2.509
		c2.192,0,4.384-0.837,6.057-2.509l27.969-27.969c3.346-3.347,3.346-8.771,0-12.115
		C202.002,358.342,196.579,358.342,193.233,361.688z"/>
</g>
<g>
	<path fill="#FFFFFF" d="M809.452,166.662h-63.991v229.892c0,4.346-3.555,7.9-7.9,7.9h-51.746c-4.345,0-7.9-3.555-7.9-7.9V166.662
		H613.53c-4.345,0-7.9-3.16-7.9-7.505v-40.685c0-4.345,3.555-7.505,7.9-7.505h195.922c4.345,0,8.295,3.16,8.295,7.505v40.685
		C817.747,163.501,813.797,166.662,809.452,166.662z"/>
	<path fill="#FFFFFF" d="M903.065,307.283h-76.631c-4.345,0-7.9-2.766-7.9-7.11v-31.601c0-4.345,3.555-7.505,7.9-7.505h76.631
		c4.345,0,7.9,3.16,7.9,7.505v31.601C910.965,304.518,907.41,307.283,903.065,307.283z"/>
	<path fill="#FFFFFF" d="M1032.225,408.009c-31.205,0-54.51-3.555-74.656-8.689c-3.95-1.186-7.9-3.556-7.9-7.9v-38.71
		c0-5.53,3.16-7.506,7.11-7.506c0.395,0,0.79,0,1.185,0c16.195,1.58,59.646,4.74,75.051,4.74c27.255,0,35.156-8.689,35.156-27.65
		c0-11.455-5.53-17.775-26.07-30.02l-54.511-32.391c-36.735-21.726-46.61-46.611-46.61-75.446c0-43.45,24.49-77.025,101.121-77.025
		c28.835,0,68.73,4.74,83.741,8.69c3.16,0.79,5.925,2.765,5.925,7.11v39.896c0,3.555-1.58,6.715-6.715,6.715c0,0-0.395,0-0.79,0
		c-11.06-0.79-56.88-4.345-83.741-4.345c-22.515,0-30.811,6.715-30.811,20.935c0,11.06,5.135,16.195,26.465,27.65l50.561,27.255
		c41.081,22.12,53.326,48.19,53.326,80.187C1140.061,363.373,1112.411,408.009,1032.225,408.009z"/>
	<path fill="#FFFFFF" d="M1370.345,166.662h-63.991v229.892c0,4.346-3.555,7.9-7.9,7.9h-51.746c-4.345,0-7.9-3.555-7.9-7.9V166.662
		h-64.385c-4.345,0-7.9-3.16-7.9-7.505v-40.685c0-4.345,3.555-7.505,7.9-7.505h195.922c4.345,0,8.295,3.16,8.295,7.505v40.685
		C1378.64,163.501,1374.69,166.662,1370.345,166.662z"/>
	<path fill="#FFFFFF" d="M1610.9,404.454H1555.6c-3.951,0-7.111-3.16-7.9-7.11l-14.221-64.78h-80.976l-14.22,64.78
		c-0.79,3.95-3.95,7.11-7.9,7.11h-55.301c-3.949,0-6.715-2.37-6.715-6.32c0-0.395,0.396-1.185,0.396-1.975l58.855-244.903
		c9.085-37.92,38.315-43.845,65.57-43.845c27.255,0,56.091,5.925,65.175,43.845l58.855,244.903c0,0.79,0.396,1.58,0.396,1.975
		C1617.615,402.084,1614.85,404.454,1610.9,404.454z M1498.324,169.427c-0.79-3.95-1.58-5.925-5.136-5.925
		c-3.555,0-4.74,1.975-5.53,5.925l-24.095,109.021h58.855L1498.324,169.427z"/>
	<path fill="#FFFFFF" d="M1873.572,404.454h-60.436c-4.346,0-5.926-3.95-7.9-7.9l-52.932-99.936l-4.344,0.395
		c-8.297,0-20.541-0.79-28.047-0.79v100.331c0,4.346-3.555,7.9-7.898,7.9h-51.352c-4.346,0-7.9-3.555-7.9-7.9V131.506
		c0-13.43,5.531-16.985,17.775-18.96c18.17-2.765,51.746-5.135,80.186-5.135c67.15,0,118.896,22.515,118.896,92.431v5.135
		c0,41.87-22.119,67.545-50.955,79.001l59.645,111.391c0.791,1.58,1.186,3.16,1.186,4.345
		C1879.496,402.479,1877.916,404.454,1873.572,404.454z M1802.471,199.842c0-24.095-18.564-35.155-51.746-35.155
		c-5.529,0-26.07,0.79-30.811,1.185v75.841c4.346,0.395,23.701,0.79,28.047,0.79c41.475,0,54.51-10.665,54.51-37.525V199.842z"/>
	<path fill="#FFFFFF" d="M2094.77,166.662h-63.99v229.892c0,4.346-3.557,7.9-7.9,7.9h-51.746c-4.346,0-7.9-3.555-7.9-7.9V166.662
		h-64.385c-4.346,0-7.9-3.16-7.9-7.505v-40.685c0-4.345,3.555-7.505,7.9-7.505h195.922c4.344,0,8.295,3.16,8.295,7.505v40.685
		C2103.064,163.501,2099.113,166.662,2094.77,166.662z"/>
	<path fill="#FFFFFF" d="M2302.932,402.874c-13.824,1.975-33.971,5.135-76.631,5.135c-50.955,0-95.986-13.035-95.986-84.926V191.942
		c0-71.891,45.426-84.531,96.383-84.531c42.66,0,62.41,3.16,76.234,5.135c5.531,0.79,7.9,2.765,7.9,7.9v36.735
		c0,4.345-3.555,7.9-7.9,7.9h-80.186c-18.564,0-25.279,6.32-25.279,26.86v35.945h102.305c4.346,0,7.9,3.555,7.9,7.9v37.525
		c0,4.346-3.555,7.9-7.9,7.9h-102.305v41.87c0,20.54,6.715,26.86,25.279,26.86h80.186c4.346,0,7.9,3.555,7.9,7.9v36.735
		C2310.832,399.714,2308.463,402.084,2302.932,402.874z"/>
	<path fill="#FFFFFF" d="M2581.402,404.454h-60.436c-4.346,0-5.926-3.95-7.9-7.9l-52.93-99.936l-4.346,0.395
		c-8.295,0-20.541-0.79-28.045-0.79v100.331c0,4.346-3.555,7.9-7.9,7.9h-51.35c-4.346,0-7.9-3.555-7.9-7.9V131.506
		c0-13.43,5.529-16.985,17.775-18.96c18.17-2.765,51.744-5.135,80.186-5.135c67.15,0,118.896,22.515,118.896,92.431v5.135
		c0,41.87-22.121,67.545-50.957,79.001l59.646,111.391c0.789,1.58,1.186,3.16,1.186,4.345
		C2587.328,402.479,2585.748,404.454,2581.402,404.454z M2510.301,199.842c0-24.095-18.564-35.155-51.744-35.155
		c-5.531,0-26.07,0.79-30.811,1.185v75.841c4.346,0.395,23.699,0.79,28.045,0.79c41.475,0,54.51-10.665,54.51-37.525V199.842z"/>
</g>
<g>
</g>
<g>
</g>
<g>
</g>
<g>
</g>
<g>
</g>
<g>
</g>
</svg>
