<?xml version="1.0" encoding="utf-8"?>
<!-- Generator: Adobe Illustrator 16.0.0, SVG Export Plug-In . SVG Version: 6.00 Build 0)  -->
<!DOCTYPE svg PUBLIC "-//W3C//DTD SVG 1.1//EN" "http://www.w3.org/Graphics/SVG/1.1/DTD/svg11.dtd">
<svg version="1.1" id="Layer_1" xmlns="http://www.w3.org/2000/svg" xmlns:xlink="http://www.w3.org/1999/xlink" x="0px" y="0px"
	 width="694px" height="598px" viewBox="0 0 694 598" enable-background="new 0 0 694 598" xml:space="preserve">
<g>
	<g>
		<path opacity="0.1" fill="#FFFFFF" enable-background="new    " d="M346.958,344.577c-26.01,0-47.094,21.084-47.094,47.095
			c0,67.632,47.094,111.844,47.094,203.344c0-91.5,47.095-135.712,47.095-203.344C394.054,365.661,372.969,344.577,346.958,344.577z
			"/>
		<path opacity="0.2" fill="#FFFFFF" d="M346.958,344.577c-17.411,0-31.53,14.114-31.53,31.528c0,45.278,31.53,74.873,31.53,136.129
			c0-61.256,31.529-90.851,31.529-136.129C378.487,358.691,364.371,344.577,346.958,344.577z"/>
	</g>
	
		<linearGradient id="SVGID_1_" gradientUnits="userSpaceOnUse" x1="-6774.8052" y1="52.498" x2="-6774.8652" y2="70.3876" gradientTransform="matrix(1 0.0034 0.0034 -1 7120.9507 432.3075)">
		<stop  offset="0" style="stop-color:#FFFFFF"/>
		<stop  offset="0.129" style="stop-color:#EFF6FF"/>
		<stop  offset="0.5153" style="stop-color:#C6DFFF"/>
		<stop  offset="0.8188" style="stop-color:#ACD0FF"/>
		<stop  offset="1" style="stop-color:#A2CBFF"/>
	</linearGradient>
	<path fill="url(#SVGID_1_)" d="M378.66,356.775l-64.786-0.327c-3.048-0.017-5.505-2.499-5.491-5.544l0.063-12.021l75.82,0.383
		l-0.061,12.018C384.191,354.332,381.709,356.789,378.66,356.775z"/>
	<g>
		
			<linearGradient id="SVGID_2_" gradientUnits="userSpaceOnUse" x1="-5590.5757" y1="-3037.8911" x2="-5501.0752" y2="-3037.4426" gradientTransform="matrix(0.9999 0.005 0.005 -0.9999 5988.5317 -2695.5417)">
			<stop  offset="0.25" style="stop-color:#FF422A"/>
			<stop  offset="0.3387" style="stop-color:#FF522F"/>
			<stop  offset="0.9557" style="stop-color:#FFCE5B"/>
			<stop  offset="1" style="stop-color:#FFD75E"/>
		</linearGradient>
		<path fill="url(#SVGID_2_)" d="M425.637,231.321l41.697,58.653c5.001,7.034,6.689,15.899,4.625,24.28l-19.682,79.936
			c-0.642,2.604-3.846,3.558-5.805,1.725l-63.146-57.542L425.637,231.321z"/>
		
			<linearGradient id="SVGID_3_" gradientUnits="userSpaceOnUse" x1="11457.918" y1="-3010.3916" x2="11368.6348" y2="-3010.2351" gradientTransform="matrix(-1 -0.0018 0.0018 -1 11683.3896 -2676.2935)">
			<stop  offset="0" style="stop-color:#FFD75E"/>
			<stop  offset="0.493" style="stop-color:#FF723B"/>
			<stop  offset="0.75" style="stop-color:#FF422A"/>
		</linearGradient>
		<path fill="url(#SVGID_3_)" d="M267.777,230.791l-42.089,58.37c-5.049,7-6.796,15.854-4.79,24.251l19.146,80.064
			c0.624,2.607,3.821,3.582,5.792,1.764l63.531-57.116L267.777,230.791z"/>
	</g>
	
		<linearGradient id="SVGID_4_" gradientUnits="userSpaceOnUse" x1="487.293" y1="173.7925" x2="678.8416" y2="-17.7563" gradientTransform="matrix(1 0 0 -1 -236 273)">
		<stop  offset="0" style="stop-color:#FFFFFF"/>
		<stop  offset="0.2088" style="stop-color:#FBFDFF"/>
		<stop  offset="0.416" style="stop-color:#EFF6FF"/>
		<stop  offset="0.6226" style="stop-color:#DBEBFF"/>
		<stop  offset="0.8275" style="stop-color:#BFDBFF"/>
		<stop  offset="1" style="stop-color:#A2CBFF"/>
	</linearGradient>
	<path fill="url(#SVGID_4_)" d="M347.74,3.612C276.055,61.987,236.338,246.581,294,334.322c1.787,2.717,4.52,4.35,7.443,4.363
		l89.5,0.476c2.926,0.015,5.673-1.585,7.484-4.284C456.928,247.755,418.86,62.746,347.74,3.612z"/>
	
		<linearGradient id="SVGID_5_" gradientUnits="userSpaceOnUse" x1="541.8613" y1="228.3584" x2="624.1649" y2="146.0549" gradientTransform="matrix(1 0 0 -1 -236 273)">
		<stop  offset="0" style="stop-color:#FFD75E"/>
		<stop  offset="0.493" style="stop-color:#FF723B"/>
		<stop  offset="0.75" style="stop-color:#FF422A"/>
	</linearGradient>
	<path fill="url(#SVGID_5_)" d="M347.74,3.612c-25.898,21.09-47.565,58.692-62.024,102.217
		c-22.997-1.101,123.053,0.514,123.053,0.514C394.71,62.726,373.406,24.953,347.74,3.612z"/>
	<g>
		
			<linearGradient id="SVGID_6_" gradientUnits="userSpaceOnUse" x1="553.7012" y1="120.7114" x2="612.0488" y2="62.3637" gradientTransform="matrix(1 0 0 -1 -236 273)">
			<stop  offset="0" style="stop-color:#FFD75E"/>
			<stop  offset="0.493" style="stop-color:#FF723B"/>
			<stop  offset="0.75" style="stop-color:#FF422A"/>
		</linearGradient>
		<circle fill="url(#SVGID_6_)" cx="346.875" cy="181.463" r="41.258"/>
		<g>
			<g>
				<path fill="#571AFF" d="M379.929,176.532c2.727,18.254-9.863,35.264-28.12,37.986c-18.256,2.725-35.263-9.865-37.988-28.121
					c-2.725-18.256,9.863-35.263,28.121-37.988C360.197,145.684,377.205,158.273,379.929,176.532z"/>
				<path fill="#571AFF" d="M379.929,176.532c-1.147-7.716-4.869-14.397-10.138-19.36c0.037,0.908,0.109,1.814,0.212,2.7
					c0.49,4.111,1.368,8.356,0.183,12.324c-1.096,3.674-4.007,6.756-7.615,8.057c-5.163,1.859-11.188,0.167-16.188,2.434
					c-6.09,2.757-8.685,10.465-14.708,13.369c-2.847,1.373-6.16,1.491-9.282,1.009c-2.209-0.34-4.421-1.026-6.18-2.388
					c5.852,13.6,20.266,22.132,35.598,19.845C370.064,211.796,382.654,194.789,379.929,176.532z"/>
			</g>
			<g opacity="0.4">
				<path fill="#FFFFFF" d="M347.907,153.643c-0.715,0.002-1.434,0.034-2.154,0.098c-0.738,0.06-1.41,0.412-1.892,0.983
					c-0.476,0.571-0.704,1.292-0.641,2.03c0.125,1.445,1.311,2.537,2.757,2.546l0.262-0.012c0.564-0.052,1.135-0.075,1.696-0.078
					c0.746-0.003,1.444-0.297,1.972-0.831c0.521-0.527,0.806-1.229,0.801-1.972C350.693,154.892,349.45,153.648,347.907,153.643z
					 M345.984,158.325L345.984,158.325h-0.004H345.984z"/>
				<path fill="#FFFFFF" d="M338.553,155.667c-0.684-0.292-1.438-0.296-2.128-0.023c-7.102,2.849-12.772,8.573-15.563,15.701
					c-0.55,1.427,0.159,3.045,1.592,3.607c0.318,0.125,0.652,0.185,0.993,0.188c1.141,0.005,2.188-0.707,2.605-1.771
					c2.262-5.784,6.683-10.245,12.446-12.558c0.691-0.277,1.23-0.807,1.521-1.488c0.297-0.686,0.304-1.441,0.025-2.127
					C339.77,156.5,339.242,155.958,338.553,155.667z"/>
			</g>
		</g>
	</g>
	<path fill="#FFFFFF" d="M295.013,318.982c2.052,6.631,4.308,13.231,6.811,19.789h39.149c-0.679-1.099-1.356-2.215-2.031-3.351
		c-1.676-2.858-3.282-5.815-4.859-8.806c-3.123-6.01-5.992-12.231-8.71-18.538c-5.315-12.673-9.806-25.816-13.378-39.259
		c-7.097-26.896-10.753-54.973-10.511-83.25c0.167-14.124,0.946-28.343,2.981-42.446l0.673-5.31l0.906-5.271l1.83-10.565
		l2.298-10.488l1.151-5.256l1.387-5.196c7.218-27.795,17.573-54.971,30.5-81.012c-15.598,24.528-28.926,50.694-39.289,78.235
		l-1.976,5.159l-1.747,5.237l-3.496,10.502l-3.035,10.658l-1.509,5.343l-1.281,5.401c-3.65,14.375-6.046,29.084-7.793,43.909
		c-3.403,29.675-2.758,60.013,1.839,89.977C287.247,289.425,290.61,304.302,295.013,318.982z"/>
	
		<linearGradient id="SVGID_7_" gradientUnits="userSpaceOnUse" x1="-5669.6787" y1="-3017.9424" x2="-5585.1831" y2="-3101.5957" gradientTransform="matrix(0.9999 0.005 0.005 -0.9999 5988.5308 -2695.5417)">
		<stop  offset="0.25" style="stop-color:#FF422A"/>
		<stop  offset="1" style="stop-color:#FFD65E"/>
	</linearGradient>
	<path fill="url(#SVGID_7_)" d="M345.949,415.315L345.949,415.315c-6.427-0.032-11.649-5.197-11.757-11.626l-1.096-79.928
		c-0.158-9.882,0.706-19.758,2.584-29.462l7.656-39.557l6.802,0.034l7.259,39.63c1.778,9.722,2.547,19.606,2.286,29.487
		l-1.862,79.913C357.65,410.236,352.377,415.346,345.949,415.315z"/>
</g>
</svg>
